<?xml version="1.0" ?><!-- Uploaded to: SVG Repo, www.svgrepo.com, Generator: SVG Repo Mixer Tools -->
<svg width="800px" height="800px" viewBox="0 0 512 512" id="svg2" version="1.1" xmlns="http://www.w3.org/2000/svg" xmlns:cc="http://creativecommons.org/ns#" xmlns:dc="http://purl.org/dc/elements/1.1/" xmlns:inkscape="http://www.inkscape.org/namespaces/inkscape" xmlns:rdf="http://www.w3.org/1999/02/22-rdf-syntax-ns#" xmlns:sodipodi="http://sodipodi.sourceforge.net/DTD/sodipodi-0.dtd" xmlns:svg="http://www.w3.org/2000/svg"><defs id="defs6"><marker id="DistanceX" orient="auto" refX="0.0" refY="0.0" style="overflow:visible"><path d="M 3,-3 L -3,3 M 0,-5 L  0,5" id="path4246" style="stroke:#000000; stroke-width:0.5"/></marker><pattern height="8" id="Hatch" patternUnits="userSpaceOnUse" width="8" x="0" y="0"><path d="M8 4 l-4,4" id="path4249" linecap="square" stroke="#000000" stroke-width="0.25"/><path d="M6 2 l-4,4" id="path4251" linecap="square" stroke="#000000" stroke-width="0.25"/><path d="M4 0 l-4,4" id="path4253" linecap="square" stroke="#000000" stroke-width="0.25"/></pattern><symbol id="*Model_Space"/><symbol id="*Paper_Space"/><symbol id="*Paper_Space0"/><symbol id="BT_steering"><path d="M 802.127245,-62.119369 C 593.861073,-62.119369 424.127239,107.614477 424.127239,315.880631" id="path4259" style="stroke:#FF0000;fill:none"/><path d="M 424.127239,315.880631 C 424.127239,315.883988 424.127239,315.887351 424.127239,315.890709" id="path4261" style="stroke:#FF0000;fill:none"/><path d="M 424.127239,315.890709 C 424.164503,453.368820 498.985061,580.151788 619.315676,646.640709" id="path4263" style="stroke:#FF0000;fill:none"/><path d="M 619.315676,646.640709 C 625.533907,650.076919 632.522121,651.879771 639.626622,651.880628" id="path4265" style="stroke:#FF0000;fill:none"/><path d="M 639.626622,651.880628 C 639.626622,651.880628 964.030675,651.880628 964.030675,651.880628" id="path4267" style="stroke:#FF0000;fill:none"/><path d="M 964.030675,651.880628 C 971.107031,651.880580 978.068690,650.092759 984.269432,646.683128" id="path4269" style="stroke:#FF0000;fill:none"/><path d="M 984.269432,646.683128 C 1104.859075,580.370302 1179.955061,453.552987 1180.127245,315.933128" id="path4271" style="stroke:#FF0000;fill:none"/><path d="M 1180.127245,315.933128 C 1180.127257,315.915633 1180.127257,315.898132 1180.127245,315.880631" id="path4273" style="stroke:#FF0000;fill:none"/><path d="M 1180.127245,315.880631 C 1180.127245,107.614477 1010.393399,-62.119369 802.127245,-62.119369" id="path4275" style="stroke:#FF0000;fill:none"/><path d="M 802.127245,21.880630 C 938.621313,21.880630 1052.805975,113.988545 1086.214591,239.683438" id="path4277" style="stroke:#FF0000;fill:none"/><path d="M 802.127245,-62.119369 L 802.127245,-62.119369 L 802.127245,-62.119369 z" id="path4279" style="stroke:#FF0000;fill:none"/><path d="M 518.039898,239.683438 C 551.448330,113.988444 665.632992,21.880630 802.127245,21.880630" id="path4281" style="stroke:#FF0000;fill:none"/><path d="M 1086.214591,239.683438 L 518.039898,239.683438 L 1086.214591,239.683438 z" id="path4283" style="stroke:#FF0000;fill:none"/><path d="M 508.668647,333.248284 C 549.214582,337.087252 621.477485,351.692785 675.264278,405.649059" id="path4285" style="stroke:#FF0000;fill:none"/><path d="M 675.264278,405.649059 C 737.704669,468.286266 749.697538,538.342869 751.901158,567.880629" id="path4287" style="stroke:#FF0000;fill:none"/><path d="M 802.127245,21.880630 L 802.127245,21.880630 L 802.127245,21.880630 z" id="path4289" style="stroke:#FF0000;fill:none"/><path d="M 651.173332,567.880629 C 567.660327,517.886218 514.413938,430.087973 508.668647,333.248284" id="path4291" style="stroke:#FF0000;fill:none"/><path d="M 751.901158,567.880629 L 651.173332,567.880629 L 751.901158,567.880629 z" id="path4293" style="stroke:#FF0000;fill:none"/><path d="M 1095.562865,333.251647 C 1089.700775,430.190974 1036.247509,518.011964 952.529897,567.880629" id="path4295" style="stroke:#FF0000;fill:none"/><path d="M 508.668647,333.248284 L 508.668647,333.248284 L 508.668647,333.248284 z" id="path4297" style="stroke:#FF0000;fill:none"/><path d="M 852.353331,567.880629 C 854.556952,538.342869 866.549820,468.286266 928.990212,405.649059" id="path4299" style="stroke:#FF0000;fill:none"/><path d="M 928.990212,405.649059 C 982.767028,351.702780 1055.012674,337.093824 1095.562865,333.251564" id="path4301" style="stroke:#FF0000;fill:none"/><path d="M 952.529897,567.880629 L 852.353331,567.880629 L 952.529897,567.880629 z" id="path4303" style="stroke:#FF0000;fill:none"/><path d="M 1095.562865,333.251564 L 1095.562865,333.251647 L 1095.562865,333.251564 z" id="path4305" style="stroke:#FF0000;fill:none"/></symbol><marker id="DistanceX-9" orient="auto" refX="0.0" refY="0.0" style="overflow:visible"><path d="M 3,-3 L -3,3 M 0,-5 L  0,5" id="path4415" style="stroke:#000000; stroke-width:0.5"/></marker><pattern height="8" id="Hatch-7" patternUnits="userSpaceOnUse" width="8" x="0" y="0"><path d="M8 4 l-4,4" id="path4418" linecap="square" stroke="#000000" stroke-width="0.25"/><path d="M6 2 l-4,4" id="path4420" linecap="square" stroke="#000000" stroke-width="0.25"/><path d="M4 0 l-4,4" id="path4422" linecap="square" stroke="#000000" stroke-width="0.25"/></pattern><symbol id="*Model_Space-8"/><symbol id="*Paper_Space-3"/><symbol id="*Paper_Space0-3"/><symbol id="BT_steering-6"><path d="M 802.127245,-62.119369 C 593.861073,-62.119369 424.127239,107.614477 424.127239,315.880631" id="path4428" style="stroke:#FF0000;fill:none"/><path d="M 424.127239,315.880631 C 424.127239,315.883988 424.127239,315.887351 424.127239,315.890709" id="path4430" style="stroke:#FF0000;fill:none"/><path d="M 424.127239,315.890709 C 424.164503,453.368820 498.985061,580.151788 619.315676,646.640709" id="path4432" style="stroke:#FF0000;fill:none"/><path d="M 619.315676,646.640709 C 625.533907,650.076919 632.522121,651.879771 639.626622,651.880628" id="path4434" style="stroke:#FF0000;fill:none"/><path d="M 639.626622,651.880628 C 639.626622,651.880628 964.030675,651.880628 964.030675,651.880628" id="path4436" style="stroke:#FF0000;fill:none"/><path d="M 964.030675,651.880628 C 971.107031,651.880580 978.068690,650.092759 984.269432,646.683128" id="path4438" style="stroke:#FF0000;fill:none"/><path d="M 984.269432,646.683128 C 1104.859075,580.370302 1179.955061,453.552987 1180.127245,315.933128" id="path4440" style="stroke:#FF0000;fill:none"/><path d="M 1180.127245,315.933128 C 1180.127257,315.915633 1180.127257,315.898132 1180.127245,315.880631" id="path4442" style="stroke:#FF0000;fill:none"/><path d="M 1180.127245,315.880631 C 1180.127245,107.614477 1010.393399,-62.119369 802.127245,-62.119369" id="path4444" style="stroke:#FF0000;fill:none"/><path d="M 802.127245,21.880630 C 938.621313,21.880630 1052.805975,113.988545 1086.214591,239.683438" id="path4446" style="stroke:#FF0000;fill:none"/><path d="M 802.127245,-62.119369 L 802.127245,-62.119369 L 802.127245,-62.119369 z" id="path4448" style="stroke:#FF0000;fill:none"/><path d="M 518.039898,239.683438 C 551.448330,113.988444 665.632992,21.880630 802.127245,21.880630" id="path4450" style="stroke:#FF0000;fill:none"/><path d="M 1086.214591,239.683438 L 518.039898,239.683438 L 1086.214591,239.683438 z" id="path4452" style="stroke:#FF0000;fill:none"/><path d="M 508.668647,333.248284 C 549.214582,337.087252 621.477485,351.692785 675.264278,405.649059" id="path4454" style="stroke:#FF0000;fill:none"/><path d="M 675.264278,405.649059 C 737.704669,468.286266 749.697538,538.342869 751.901158,567.880629" id="path4456" style="stroke:#FF0000;fill:none"/><path d="M 802.127245,21.880630 L 802.127245,21.880630 L 802.127245,21.880630 z" id="path4458" style="stroke:#FF0000;fill:none"/><path d="M 651.173332,567.880629 C 567.660327,517.886218 514.413938,430.087973 508.668647,333.248284" id="path4460" style="stroke:#FF0000;fill:none"/><path d="M 751.901158,567.880629 L 651.173332,567.880629 L 751.901158,567.880629 z" id="path4462" style="stroke:#FF0000;fill:none"/><path d="M 1095.562865,333.251647 C 1089.700775,430.190974 1036.247509,518.011964 952.529897,567.880629" id="path4464" style="stroke:#FF0000;fill:none"/><path d="M 508.668647,333.248284 L 508.668647,333.248284 L 508.668647,333.248284 z" id="path4466" style="stroke:#FF0000;fill:none"/><path d="M 852.353331,567.880629 C 854.556952,538.342869 866.549820,468.286266 928.990212,405.649059" id="path4468" style="stroke:#FF0000;fill:none"/><path d="M 928.990212,405.649059 C 982.767028,351.702780 1055.012674,337.093824 1095.562865,333.251564" id="path4470" style="stroke:#FF0000;fill:none"/><path d="M 952.529897,567.880629 L 852.353331,567.880629 L 952.529897,567.880629 z" id="path4472" style="stroke:#FF0000;fill:none"/><path d="M 1095.562865,333.251564 L 1095.562865,333.251647 L 1095.562865,333.251564 z" id="path4474" style="stroke:#FF0000;fill:none"/></symbol></defs><path d="m 415.09934,113.55139 a 25,25 0 0 0 -35.35534,0 25,25 0 0 0 -1.19462,1.28301 200,200 0 0 0 -245.07742,0.0594 25,25 0 0 0 -1.21534,-1.3424 25,25 0 0 0 -35.355343,0 25,25 0 0 0 0,35.35534 25,25 0 0 0 1.28301,1.19462 200,200 0 0 0 0.003,245.00698 l -1.28578,1.28578 a 25,25 0 0 0 0,35.35534 25,25 0 0 0 35.355343,0 l 17.67767,-17.67767 a 25,25 0 0 0 0,-35.35534 150,150 0 0 1 0,-212.13204 150,150 0 0 1 212.13204,0 150,150 0 0 1 0,212.13204 25,25 0 0 0 0,35.35534 l 17.67767,17.67767 a 25,25 0 0 0 35.35534,0 25,25 0 0 0 0,-35.35534 l -1.24435,-1.24435 a 200,200 0 0 0 -0.0981,-245.02769 25,25 0 0 0 1.3424,-1.21534 25,25 0 0 0 0,-35.35534 z m -113.43126,40.85337 a 25,25 0 0 0 -12.02082,-7.32518 25,25 0 0 0 -30.61827,17.67767 l -15.98725,59.6649 a 50,50 0 0 0 -35.33738,35.28766 50,50 0 0 0 35.35534,61.23655 50,50 0 0 0 61.23655,-35.35533 50,50 0 0 0 -12.95442,-48.24346 l 15.9831,-59.64971 a 25,25 0 0 0 -5.65685,-23.2931 z" id="path4901-4-4" style="color:#000000;clip-rule:nonzero;display:inline;overflow:visible;visibility:visible;opacity:1;isolation:auto;mix-blend-mode:normal;color-interpolation:sRGB;color-interpolation-filters:linearRGB;solid-color:#000000;solid-opacity:1;fill:#222222;fill-opacity:1;fill-rule:evenodd;stroke:none;stroke-width:10;stroke-linecap:round;stroke-linejoin:round;stroke-miterlimit:4;stroke-dasharray:none;stroke-dashoffset:0;stroke-opacity:1;color-rendering:auto;image-rendering:auto;shape-rendering:auto;text-rendering:auto;enable-background:accumulate"/></svg>